# xmcd
#
# Track frame offsets:
#	150
#	13674
#	26320
#	39123
#	52058
#	64875
#	76838
#	90839
#	102945
#	116395
#	129602
#
# Disc length: 1931 seconds
#
# Revision: 1
# Processed by: cddbd v1.5.2PL0 Copyright (c) Steve Scherf et al.
# Submitted via: audiograbber 1.83.01
#
DISCID=7a07890b
DTITLE=Various Artist - Melodi Grand Prix Jr
DYEAR=2010
DGENRE=Children
TTITLE0=Alexandra - Det vi vil
TTITLE1=Murphys Law - Åbbår
TTITLE2=Julie - Berømt
TTITLE3=Sara - Utfordring
TTITLE4=Emilie - Hvorfor skal det være sånn
TTITLE5=Arbaz - Dans jente dans
TTITLE6=Maria - På grunn av deg
TTITLE7=Basic Warning - Kom til oss
TTITLE8=Torstein - Svikter aldri igjen
TTITLE9=Johanna - Følg din drøm
TTITLE10=? - Du e suveren
EXTD=
EXTT0=
EXTT1=
EXTT2=
EXTT3=
EXTT4=
EXTT5=
EXTT6=
EXTT7=
EXTT8=
EXTT9=
EXTT10=
PLAYORDER=
